<?xml version="1.0" encoding="UTF-8" standalone="no"?>
<!-- Created with Inkscape (http://www.inkscape.org/) -->

<svg
   xmlns:dc="http://purl.org/dc/elements/1.1/"
   xmlns:cc="http://creativecommons.org/ns#"
   xmlns:rdf="http://www.w3.org/1999/02/22-rdf-syntax-ns#"
   xmlns:svg="http://www.w3.org/2000/svg"
   xmlns="http://www.w3.org/2000/svg"
   xmlns:sodipodi="http://sodipodi.sourceforge.net/DTD/sodipodi-0.dtd"
   xmlns:inkscape="http://www.inkscape.org/namespaces/inkscape"
   width="744.09448819"
   height="1052.3622047"
   id="svg2"
   version="1.1"
   inkscape:version="0.48.4 r9939"
   sodipodi:docname="Images.svg">
  <defs
     id="defs4" />
  <sodipodi:namedview
     id="base"
     pagecolor="#ffffff"
     bordercolor="#666666"
     borderopacity="1.0"
     inkscape:pageopacity="0.0"
     inkscape:pageshadow="2"
     inkscape:zoom="5.6"
     inkscape:cx="-1024.758"
     inkscape:cy="-40.668572"
     inkscape:document-units="px"
     inkscape:current-layer="layer1"
     showgrid="true"
     inkscape:object-nodes="true"
     inkscape:window-width="1366"
     inkscape:window-height="706"
     inkscape:window-x="-8"
     inkscape:window-y="-8"
     inkscape:window-maximized="1">
    <inkscape:grid
       type="xygrid"
       id="grid3771" />
  </sodipodi:namedview>
  <metadata
     id="metadata7">
    <rdf:RDF>
      <cc:Work
         rdf:about="">
        <dc:format>image/svg+xml</dc:format>
        <dc:type
           rdf:resource="http://purl.org/dc/dcmitype/StillImage" />
        <dc:title />
      </cc:Work>
    </rdf:RDF>
  </metadata>
  <g
     inkscape:label="Layer 1"
     inkscape:groupmode="layer"
     id="layer1">
    <path
       style="fill:#124899;fill-opacity:1;stroke:none"
       d="M 271.4375 275.21875 L 271.4375 425.21875 L 271.4375 575.21875 L 324.96875 521.6875 L 324.96875 455.46875 L 391.1875 455.46875 L 421.4375 455.46875 L 421.4375 485.71875 L 481.9375 425.21875 L 451.6875 394.96875 L 421.4375 364.71875 L 421.4375 394.96875 L 324.96875 394.96875 L 324.96875 328.75 L 421.4375 328.75 L 517.90625 328.75 L 571.4375 275.21875 L 421.4375 275.21875 L 271.4375 275.21875 z "
       id="path3827"
       inkscape:export-filename="C:\Users\Vinesh Kannan\Google Drive\Vingkan\Flow\icon.png"
       inkscape:export-xdpi="180"
       inkscape:export-ydpi="180" />
    <path
       style="fill:#5691eb;fill-opacity:1;stroke:none"
       d="M 571.4375 275.21875 L 517.90625 328.75 L 517.90625 425.21875 C 517.90625 428.54841 517.73557 431.85097 517.40625 435.09375 C 517.07693 438.33651 516.57998 441.51652 515.9375 444.65625 C 515.29501 447.79597 514.50197 450.88574 513.5625 453.90625 C 512.62303 456.92676 511.5328 459.86486 510.3125 462.75 C 509.09218 465.63514 507.73498 468.4539 506.25 471.1875 C 504.76502 473.9211 503.13975 476.59034 501.40625 479.15625 C 499.67276 481.72215 497.84084 484.18045 495.875 486.5625 C 493.90917 488.94454 491.83828 491.25548 489.65625 493.4375 C 487.47423 495.61953 485.16329 497.69042 482.78125 499.65625 C 480.3992 501.62209 477.90966 503.45401 475.34375 505.1875 C 472.77785 506.921 470.13985 508.54627 467.40625 510.03125 C 464.67265 511.51622 461.85389 512.87343 458.96875 514.09375 C 456.08361 515.31405 453.14551 516.40428 450.125 517.34375 C 447.10449 518.28322 444.01472 519.07626 440.875 519.71875 C 437.73527 520.36123 434.52402 520.85818 431.28125 521.1875 C 428.03849 521.51682 424.76716 521.6875 421.4375 521.6875 L 324.96875 521.6875 L 271.4375 575.21875 L 421.4375 575.21875 C 426.61517 575.21875 431.70744 574.9496 436.75 574.4375 C 441.79256 573.9254 446.77393 573.15532 451.65625 572.15625 C 456.53857 571.15718 461.3343 569.92965 466.03125 568.46875 C 470.7282 567.00785 475.32606 565.3351 479.8125 563.4375 C 484.29894 561.5399 488.6867 559.43417 492.9375 557.125 C 497.1883 554.81583 501.29122 552.28936 505.28125 549.59375 C 509.27128 546.89814 513.13963 544.02566 516.84375 540.96875 C 520.54787 537.91184 524.10692 534.67433 527.5 531.28125 C 530.89308 527.88817 534.13059 524.32912 537.1875 520.625 C 540.24441 516.92088 543.11689 513.08378 545.8125 509.09375 C 548.50811 505.10372 551.00333 500.96955 553.3125 496.71875 C 555.62167 492.46795 557.75865 488.08019 559.65625 483.59375 C 561.55385 479.10731 563.2266 474.50945 564.6875 469.8125 C 566.1484 465.11555 567.37593 460.31982 568.375 455.4375 C 569.37407 450.55518 570.14415 445.60506 570.65625 440.5625 C 571.16835 435.51994 571.4375 430.39642 571.4375 425.21875 L 571.4375 275.21875 z "
       id="path3825"
       inkscape:export-filename="C:\Users\Vinesh Kannan\Google Drive\Vingkan\Flow\icon.png"
       inkscape:export-xdpi="180"
       inkscape:export-ydpi="180" />
    <rect
       style="opacity:1;fill:#c91616;fill-opacity:1;stroke:none"
       id="rect3831"
       width="300.74084"
       height="185.86807"
       x="-111.98463"
       y="268.4838" />
    <path
       inkscape:connector-curvature="0"
       style="fill:#124899;fill-opacity:1;stroke:none"
       d="m -192.42641,461.93567 0,150 0,150 53.53125,-53.53125 0,-66.21875 66.218753,0 30.25,0 0,30.25 60.5,-60.5 -30.25,-30.25 -30.25,-30.25 0,30.25 -96.468753,0 0,-66.21875 96.468753,0 96.46875,0 53.531247,-53.53125 -149.999997,0 -150.000003,0 z"
       id="path3827-8"
       inkscape:export-filename="C:\Users\Vinesh Kannan\Google Drive\Vingkan\Flow\icon2.png"
       inkscape:export-xdpi="180"
       inkscape:export-ydpi="180" />
    <path
       inkscape:connector-curvature="0"
       style="fill:#c91616;fill-opacity:1;stroke:none"
       d="m 107.57359,461.93567 -53.531247,53.53125 0,96.46875 c 0,3.32966 -0.17068,6.63222 -0.5,9.875 -0.32932,3.24276 -0.82627,6.42277 -1.46875,9.5625 -0.64249,3.13972 -1.43553,6.22949 -2.375,9.25 -0.93947,3.02051 -2.0297,5.95861 -3.25,8.84375 -1.22032,2.88514 -2.57752,5.7039 -4.0625,8.4375 -1.48498,2.7336 -3.11025,5.40284 -4.84375,7.96875 -1.73349,2.5659 -3.56541,5.0242 -5.53125,7.40625 -1.96583,2.38204 -4.03672,4.69298 -6.21875,6.875 -2.18202,2.18203 -4.49296,4.25292 -6.875,6.21875 -2.38205,1.96584 -4.87159,3.79776 -7.4375,5.53125 -2.5658999,1.7335 -5.2038999,3.35877 -7.9374999,4.84375 -2.7336,1.48497 -5.55236,2.84218 -8.4375,4.0625 -2.88514,1.2203 -5.8232401,2.31053 -8.8437501,3.25 -3.02051,0.93947 -6.11028,1.73251 -9.25,2.375 -3.13973,0.64248 -6.35098,1.13943 -9.59375,1.46875 -3.24276,0.32932 -6.51409,0.5 -9.84375,0.5 l -96.468753,0 -53.53125,53.53125 150.000003,0 c 5.17767,0 10.26994,-0.26915 15.3125,-0.78125 5.04256,-0.5121 10.02393,-1.28218 14.90625,-2.28125 4.8823201,-0.99907 9.6780501,-2.2266 14.3750001,-3.6875 4.69695,-1.4609 9.2948099,-3.13365 13.7812499,-5.03125 4.48644,-1.8976 8.8742,-4.00333 13.125,-6.3125 4.2508,-2.30917 8.35372,-4.83564 12.34375,-7.53125 3.99003,-2.69561 7.85838,-5.56809 11.5625,-8.625 3.70412,-3.05691 7.26317,-6.29442 10.65625,-9.6875 3.39308,-3.39308 6.63059,-6.95213 9.6875,-10.65625 3.05691,-3.70412 5.92939,-7.54122 8.625,-11.53125 2.69561,-3.99003 5.19083,-8.1242 7.5,-12.375 2.30917,-4.2508 4.44615,-8.63856 6.34375,-13.125 1.8976,-4.48644 3.57035,-9.0843 5.031247,-13.78125 1.4609,-4.69695 2.68843,-9.49268 3.6875,-14.375 0.99907,-4.88232 1.76915,-9.83244 2.28125,-14.875 0.5121,-5.04256 0.78125,-10.16608 0.78125,-15.34375 l 0,-150 z"
       id="path3825-0"
       inkscape:export-filename="C:\Users\Vinesh Kannan\Google Drive\Vingkan\Flow\icon2.png"
       inkscape:export-xdpi="180"
       inkscape:export-ydpi="180" />
    <path
       inkscape:export-ydpi="180"
       inkscape:export-xdpi="180"
       inkscape:export-filename="C:\Users\Vinesh Kannan\Google Drive\Vingkan\Flow\icon2.png"
       id="path3035"
       d="m -1585.1489,678.58404 0,71.827 0,71.827 25.6332,-25.63326 0,-31.70863 31.7087,0 14.4851,0 0,14.48511 28.9702,-28.97022 -14.4851,-14.48511 -14.4851,-14.48511 0,14.48511 -46.1938,0 0,-31.70863 46.1938,0 46.1937,0 25.6333,-25.63326 -71.827,0 -71.827,0 z"
       style="fill:#124899;fill-opacity:1;stroke:none"
       inkscape:connector-curvature="0" />
    <path
       style="fill:#c91616;fill-opacity:1;stroke:none"
       d="m -993.02679,674.20761 0,71.82699 0,71.82701 71.827,0 c 1.85948,0 3.68606,-0.0698 5.50673,-0.2095 0.60691,-0.0465 1.22196,-0.1033 1.82561,-0.1646 2.41461,-0.24521 4.79993,-0.61396 7.13781,-1.09237 1.75342,-0.3588 3.47323,-0.77411 5.17753,-1.25696 0.5681,-0.16096 1.14361,-0.3339 1.7059,-0.50879 0.56227,-0.17488 1.1197,-0.35104 1.67595,-0.5387 1.66877,-0.563 3.31191,-1.189 4.92314,-1.87049 1.07417,-0.45433 2.13909,-0.93266 3.18733,-1.43654 0.52413,-0.25194 1.03947,-0.5139 1.55625,-0.77813 0.51678,-0.26422 1.03242,-0.53162 1.54129,-0.80805 2.03548,-1.10574 4.00016,-2.31553 5.91076,-3.60631 0.47765,-0.32269 0.95152,-0.63932 1.42157,-0.97267 1.41017,-1.00002 2.78482,-2.05955 4.11509,-3.15739 0.88686,-0.7319 1.75287,-1.48592 2.60374,-2.25955 0.85087,-0.77365 1.68659,-1.56689 2.49898,-2.37928 1.62477,-1.62476 3.17504,-3.329 4.63882,-5.10271 0.36596,-0.44342 0.72245,-0.88025 1.07741,-1.33179 0.70993,-0.90307 1.39835,-1.83103 2.06503,-2.76833 0.33333,-0.46865 0.66492,-0.94392 0.98761,-1.42157 1.29079,-1.91062 2.48562,-3.89025 3.59136,-5.92573 0.27643,-0.50888 0.54242,-1.02451 0.80805,-1.54129 0.26563,-0.51678 0.52431,-1.03214 0.77812,-1.55625 0.25382,-0.52413 0.50721,-1.0553 0.7482,-1.58619 0.241,-0.53088 0.47615,-1.06406 0.70331,-1.60114 0.22717,-0.53708 0.4446,-1.07245 0.65842,-1.6161 0.2138,-0.54365 0.41288,-1.09599 0.61352,-1.64604 0.20063,-0.55004 0.39593,-1.10474 0.58359,-1.66099 0.18767,-0.55627 0.37878,-1.11369 0.55367,-1.67598 0.17488,-0.56228 0.33285,-1.12282 0.49381,-1.69092 0.32191,-1.13621 0.61624,-2.28332 0.88287,-3.44172 0.13331,-0.57919 0.26946,-1.16631 0.38906,-1.75077 0.11961,-0.58447 0.22354,-1.16208 0.32921,-1.75079 0.10568,-0.58871 0.20797,-1.18738 0.29928,-1.78071 0.0913,-0.59332 0.17786,-1.1824 0.25439,-1.78071 0.0766,-0.59831 0.14819,-1.20699 0.20949,-1.81064 0.0613,-0.60365 0.11804,-1.20234 0.16461,-1.81064 0.0931,-1.21659 0.14774,-2.44836 0.17956,-3.68113 0.0159,-0.61639 0.0299,-1.2357 0.0299,-1.85554 l 0,-71.82699 -71.82699,0 -71.82701,0 z m 25.63329,25.63326 46.19371,0 46.19374,0 0,46.19373 c 0,0.79721 -0.0198,1.59053 -0.0598,2.37927 -0.0201,0.39438 -0.0449,0.79063 -0.0748,1.18215 -0.0299,0.39154 -0.0653,0.77899 -0.10475,1.16721 -0.0394,0.38818 -0.0854,0.78256 -0.13468,1.16718 -0.0986,0.76922 -0.22306,1.5326 -0.35913,2.28949 -0.068,0.37844 -0.13258,0.74643 -0.2095,1.12229 -0.0769,0.37586 -0.16848,0.74957 -0.25438,1.1223 -0.17179,0.74546 -0.36129,1.48348 -0.56863,2.21466 -0.10362,0.3656 -0.20177,0.73078 -0.31424,1.09237 -0.11247,0.36159 -0.2378,0.72053 -0.35914,1.07741 -0.12133,0.35688 -0.24421,0.70984 -0.37409,1.06245 -0.12991,0.3526 -0.2659,0.71366 -0.40403,1.06243 -0.13815,0.34878 -0.27291,0.68713 -0.41899,1.03251 -0.29218,0.69077 -0.60338,1.37631 -0.92777,2.05007 -0.1622,0.33688 -0.32376,0.67038 -0.49381,1.00258 -0.17005,0.3322 -0.34596,0.66037 -0.52375,0.98762 -0.35552,0.65449 -0.73508,1.30857 -1.12229,1.94531 -0.1936,0.31837 -0.38279,0.62967 -0.58359,0.94273 -0.2008,0.31306 -0.406,0.6206 -0.61353,0.92777 -0.20751,0.30718 -0.4148,0.61184 -0.62849,0.9128 -0.64101,0.90289 -1.31412,1.77818 -2.02012,2.63366 -0.23534,0.28516 -0.47661,0.57247 -0.71827,0.85294 -0.24167,0.28048 -0.48515,0.56307 -0.73324,0.83798 -0.49617,0.54984 -1.00389,1.07872 -1.52632,1.60115 -0.26122,0.26122 -0.52459,0.52353 -0.79309,0.77813 -0.2685,0.2546 -0.5481,0.5001 -0.82302,0.7482 -0.27492,0.24809 -0.55752,0.49156 -0.83798,0.73323 -0.28047,0.24166 -0.55282,0.48293 -0.83799,0.71827 -0.57031,0.47067 -1.15659,0.93595 -1.75078,1.37668 -0.59418,0.44073 -1.1963,0.8569 -1.81063,1.27194 -0.92151,0.62256 -1.8631,1.22293 -2.82819,1.78072 -0.3217,0.18592 -0.64541,0.36092 -0.97266,0.53869 -0.32724,0.17778 -0.65542,0.35369 -0.98762,0.52374 -0.3322,0.17006 -0.66571,0.33161 -1.00259,0.49381 -0.33688,0.16219 -0.67627,0.32464 -1.01755,0.47884 -0.34126,0.15422 -0.68712,0.30284 -1.0325,0.44893 -0.69078,0.29216 -1.38975,0.57819 -2.09496,0.83798 -0.70521,0.25979 -1.41667,0.49333 -2.13985,0.71827 -0.36159,0.11247 -0.72678,0.22554 -1.09237,0.3292 -0.36559,0.10372 -0.73803,0.20447 -1.10734,0.29929 -0.7386,0.18962 -1.4779,0.35495 -2.22963,0.50877 -0.75171,0.15382 -1.52302,0.30133 -2.28948,0.41899 -0.38323,0.0589 -0.76621,0.10039 -1.15222,0.14964 -0.38601,0.0493 -0.76403,0.0953 -1.15223,0.13467 -0.77639,0.0788 -1.56433,0.13942 -2.34933,0.17957 -0.39252,0.0201 -0.78682,0.0348 -1.18216,0.0449 -0.39534,0.0104 -0.78356,0.015 -1.18215,0.015 l -46.19372,0 0,-92.38748 z"
       id="path3037"
       inkscape:connector-curvature="0" />
    <text
       xml:space="preserve"
       style="font-size:196.1355896px;font-style:normal;font-variant:normal;font-weight:normal;font-stretch:normal;line-height:125%;letter-spacing:0px;word-spacing:0px;fill:#124899;fill-opacity:1;stroke:none;font-family:Ostrich Sans;-inkscape-font-specification:Ostrich Sans"
       x="-1425.7637"
       y="822.23804"
       id="text3039"
       sodipodi:linespacing="125%"><tspan
         sodipodi:role="line"
         id="tspan3041"
         x="-1425.7637"
         y="822.23804"
         style="font-style:normal;font-variant:normal;font-weight:normal;font-stretch:normal;fill:#124899;fill-opacity:1;font-family:Akashi;-inkscape-font-specification:Akashi">LOW</tspan></text>
    <path
       style="fill:#c91616;fill-opacity:1;stroke:none"
       d="m -916.3145,1053.2662 0,71.827 0,71.827 71.827,0 c 1.85948,0 3.68606,-0.07 5.50673,-0.2095 0.60691,-0.047 1.22196,-0.1033 1.82561,-0.1646 2.41461,-0.2452 4.79993,-0.614 7.13781,-1.0924 1.75342,-0.3588 3.47323,-0.7741 5.17753,-1.257 0.5681,-0.1609 1.14361,-0.3339 1.7059,-0.5088 0.56227,-0.1748 1.1197,-0.351 1.67595,-0.5387 1.66877,-0.563 3.31191,-1.189 4.92314,-1.8704 1.07417,-0.4544 2.13909,-0.9327 3.18733,-1.4366 0.52413,-0.2519 1.03947,-0.5139 1.55625,-0.7781 0.51678,-0.2642 1.03242,-0.5316 1.54129,-0.8081 2.03548,-1.1057 4.00016,-2.3155 5.91076,-3.6063 0.47765,-0.3227 0.95152,-0.6393 1.42157,-0.9726 1.41017,-1.0001 2.78482,-2.0596 4.11509,-3.1574 0.88686,-0.7319 1.75287,-1.486 2.60374,-2.2596 0.85087,-0.7736 1.68659,-1.5669 2.49898,-2.3793 1.62477,-1.6247 3.17504,-3.329 4.63882,-5.1027 0.36596,-0.4434 0.72245,-0.8802 1.07741,-1.3318 0.70993,-0.903 1.39835,-1.831 2.06503,-2.7683 0.33333,-0.4686 0.66492,-0.9439 0.98761,-1.4216 1.29079,-1.9106 2.48562,-3.8902 3.59136,-5.9257 0.27643,-0.5089 0.54242,-1.0245 0.80805,-1.5413 0.26563,-0.5168 0.52431,-1.0321 0.77812,-1.5562 0.25382,-0.5242 0.50721,-1.0553 0.7482,-1.5862 0.241,-0.5309 0.47615,-1.0641 0.70331,-1.6012 0.22717,-0.537 0.4446,-1.0724 0.65842,-1.6161 0.2138,-0.5436 0.41288,-1.096 0.61352,-1.646 0.20063,-0.55 0.39593,-1.1047 0.58359,-1.661 0.18767,-0.5563 0.37878,-1.1137 0.55367,-1.676 0.17488,-0.5623 0.33285,-1.1228 0.49381,-1.6909 0.32191,-1.1362 0.61624,-2.2833 0.88287,-3.4417 0.13331,-0.5792 0.26946,-1.1663 0.38906,-1.7508 0.11961,-0.5845 0.22354,-1.1621 0.32921,-1.7508 0.10568,-0.5887 0.20797,-1.1874 0.29928,-1.7807 0.0913,-0.5933 0.17786,-1.1824 0.25439,-1.7807 0.0766,-0.5983 0.14819,-1.207 0.20949,-1.8106 0.0613,-0.6037 0.11804,-1.2024 0.16461,-1.8107 0.0931,-1.2166 0.14774,-2.4483 0.17956,-3.6811 0.0159,-0.6164 0.0299,-1.2357 0.0299,-1.8555 l 0,-71.827 -71.82699,0 -71.82701,0 z"
       id="path3037-0"
       inkscape:connector-curvature="0"
       sodipodi:nodetypes="cccscsscccccscsccsccccccscccccccsscccccccscccc" />
    <path
       style="fill:#000000;fill-opacity:1;stroke:none"
       d="m -1072,1087.3622 12,13 12,-13 -7,0 0,-10 10,0 0,30 -30,0 0,-40 -10,0 0,50 50,0 0,-50 -30,0 0,20 z"
       id="path3831"
       inkscape:connector-curvature="0"
       sodipodi:nodetypes="cccccccccccccccc" />
    <path
       style="fill:#000000;fill-opacity:1;stroke:none"
       d="m -980,1067.3622 0,10 -40,0 0,30 40,0 0,10 -50,0 0,-50 z"
       id="path3837"
       inkscape:connector-curvature="0"
       sodipodi:nodetypes="ccccccccc" />
    <path
       style="fill:#000000;fill-opacity:1;stroke:none"
       d="m -1030,1087.3622 0,10 20,0 0,7 13,-12 -13,-12 0,7 -10,0 z"
       id="path3831-9"
       inkscape:connector-curvature="0"
       sodipodi:nodetypes="ccccccccc" />
  </g>
</svg>
